:SAMPLES-PER-SECOND 30
:FULLY-SPECIFIED
:DEGREES
129
root  1.267326629 34.02933436 0.7077133562 147.5789795 -71.14800262 -173.40802
lowerback  2.522629976 5.780049801 1.710479975
upperback  -0.822009027 7.673230171 -2.732330084
thorax  -1.652009964 3.78557992 -4.02188015
lowerneck  -8.775090218 9.79611969 -0.2528789937
upperneck  26.62140083 11.34309959 8.246939659
head  9.270970345 5.918270111 3.982359886
lclavicle  0 -9.442270133e-015 7.951389973e-016
lhumerus  5.904210091 -15.99090004 82.40319824
lradius  2.164105207e-031 -2.790249575e-031 127.7969971
lwrist  -7.062250077e-031 -0 11.26089954
lhand  -1.496451383e-031 -27.76390076 20.11240005
lfingers  90 7.125020027 -90
lthumb  89.89689403 5.08795885 91.16245106
rclavicle  0 -9.442270133e-015 7.951389973e-016
rhumerus  12.95160007 22.88759995 -81.75379944
rradius  -2.092955145e-031 2.844008228e-031 126.3499985
rwrist  0 -1.765562519e-031 -7.154739857
rhand  -7.920061211e-032 -33.2840004 9.303460121
rfingers  -90 -7.125020027 -90
rthumb  -92.93752616 -24.25625642 -97.11982154
rfemur  15.47270012 3.617449999 10.00279999
rtibia  -0 0 71.83679962
rfoot  -0 -26.0060997 -21.44020081
rtoes  5.373923086 19.29304026 -105.8922705
lfemur  -12.64850044 -11.23480034 10.21730042
ltibia  -0 0 70.59700012
lfoot  -0 11.64700031 -30.01390076
ltoes  -4.250644065 -19.5611806 -102.515957
130
root  1.323504429 33.93888999 0.7620977604 148.3400269 -71.37879944 -173.585022
lowerback  2.992889881 5.804500103 1.36322999
upperback  -0.7202669978 7.68983984 -2.806570053
thorax  -1.843330026 3.792880058 -3.957240105
lowerneck  -8.45843029 9.883660316 -0.2480919957
upperneck  26.18320084 11.52289963 8.084959984
head  9.061100006 5.990809917 3.896349907
lclavicle  0 -9.442270133e-015 7.951389973e-016
lhumerus  5.987030029 -16.01269913 82.55079651
lradius  2.178685335e-031 -2.778880035e-031 128.0970001
lwrist  -7.062250077e-031 -0 11.11880016
lhand  -1.496451383e-031 -27.76390076 20.11240005
lfingers  90 7.125020027 -90
lthumb  89.89689403 5.08795885 91.16245106
rclavicle  0 -9.442270133e-015 7.951389973e-016
rhumerus  13.47220039 22.92779922 -81.23709869
rradius  -2.130739974e-031 2.815810931e-031 127.1149979
rwrist  7.062250077e-031 -0 -7.000689983
rhand  -7.920061211e-032 -33.2840004 9.303460121
rfingers  -90 -7.125020027 -90
rthumb  -92.93752616 -24.25625642 -97.11982154
rfemur  15.10319996 3.83375001 10.0223999
rtibia  -0 0 71.8219986
rfoot  -0 -27.14669991 -21.29159927
rtoes  5.373923086 19.29304026 -105.8922705
lfemur  -13.5777998 -11.29389954 10.37220001
ltibia  -0 0 70.65380096
lfoot  -0 12.6317997 -30.31719971
ltoes  -4.250644065 -19.5611806 -102.515957
131
root  1.401035523 33.84755653 0.8286021826 149.5029907 -71.74230194 -174.1400146
lowerback  3.616650105 5.822949886 0.8958789706
upperback  -0.6323310137 7.68434 -2.922529936
thorax  -2.146260023 3.787100077 -3.888979912
lowerneck  -8.026100159 9.990579605 -0.3151009977
upperneck  25.74370003 11.71070004 8.036510468
head  8.817370415 6.071199894 3.851089954
lclavicle  0 -9.442270133e-015 7.951389973e-016
lhumerus  5.899000168 -15.93089962 82.71040344
lradius  2.190644414e-031 -2.769462238e-031 128.3439941
lwrist  -1.412450015e-030 -0 11.17870045
lhand  -1.496451383e-031 -27.76390076 20.11240005
lfingers  90 7.125020027 -90
lthumb  89.89689403 5.08795885 91.16245106
rclavicle  0 -9.442270133e-015 7.951389973e-016
rhumerus  13.80480003 23.00600052 -80.81259918
rradius  -2.163861837e-031 2.790438315e-031 127.7919998
rwrist  7.062250077e-031 -1.765562519e-031 -6.919670105
rhand  -7.920061211e-032 -33.2840004 9.303460121
rfingers  -90 -7.125020027 -90
rthumb  -92.93752616 -24.25625642 -97.11982154
rfemur  14.70670033 3.99616003 9.834859848
rtibia  -0 0 71.79709625
rfoot  -0 -28.2656002 -21.28899956
rtoes  5.373923086 19.29304026 -105.8922705
lfemur  -14.57159996 -11.37969971 10.30560017
ltibia  -0 0 70.78299713
lfoot  -0 13.7517004 -30.51469994
ltoes  -4.250644065 -19.5611806 -102.515957
132
root  1.501240036 33.75111077 0.9109777728 150.6610107 -72.02739716 -174.4979858
lowerback  4.239980221 5.852000237 0.6556450129
upperback  -0.5722370148 7.696539879 -3.07701993
thorax  -2.441450119 3.787640095 -3.986409903
lowerneck  -7.722899914 10.1008997 -0.3884499967
upperneck  25.38999939 11.87090015 8.106690407
head  8.621120453 6.150849819 3.856440067
lclavicle  0 -9.442270133e-015 7.951389973e-016
lhumerus  5.768939972 -15.91219997 82.88960266
lradius  2.196777676e-031 -2.764599768e-031 128.470993
lwrist  -7.062250077e-031 -0 11.3373003
lhand  -1.496451383e-031 -27.76390076 20.11240005
lfingers  90 7.125020027 -90
lthumb  89.89689403 5.08795885 91.16245106
rclavicle  0 -9.442270133e-015 7.951389973e-016
rhumerus  14.05210018 23.05170059 -80.5062027
rradius  -2.187936551e-031 2.771602007e-031 128.2879944
rwrist  7.062250077e-031 -1.765562519e-031 -6.786759853
rhand  -7.920061211e-032 -33.2840004 9.303460121
rfingers  -90 -7.125020027 -90
rthumb  -92.93752616 -24.25625642 -97.11982154
rfemur  14.03929996 4.114600182 9.708219528
rtibia  -0 0 71.80180359
rfoot  -0 -29.28700066 -21.43759918
rtoes  5.373923086 19.29304026 -105.8922705
lfemur  -15.75529957 -11.16989994 10.33839989
ltibia  -0 0 71.02690125
lfoot  -0 14.40390015 -31.07419968
ltoes  -4.250644065 -19.5611806 -102.515957
133
root  1.620991024 33.65155618 1.001111072 150.9390259 -72.13210297 -173.742981
lowerback  4.768670082 5.893340111 0.8688610196
upperback  -0.4978489876 7.756279945 -3.169610023
thorax  -2.614289999 3.811009884 -4.257199764
lowerneck  -7.440189838 10.21580029 -0.223526001
upperneck  24.95459938 12.04269981 7.999909878
head  8.43280983 6.24104023 3.767080069
lclavicle  0 -9.442270133e-015 7.951389973e-016
lhumerus  5.665380001 -16.03129959 83.03479767
lradius  2.198466241e-031 -2.763257177e-031 128.5059967
lwrist  -7.062250077e-031 -1.765562519e-031 11.54909992
lhand  -1.496451383e-031 -27.76390076 20.11240005
lfingers  90 7.125020027 -90
lthumb  89.89689403 5.08795885 91.16245106
rclavicle  0 -9.442270133e-015 7.951389973e-016
rhumerus  14.15789986 23.01350021 -80.34929657
rradius  -2.204056043e-031 2.758800645e-031 128.621994
rwrist  7.062250077e-031 -1.765562519e-031 -6.496520042
rhand  -7.920061211e-032 -33.2840004 9.303460121
rfingers  -90 -7.125020027 -90
rthumb  -92.93752616 -24.25625642 -97.11982154
rfemur  13.08920002 4.210020065 10.05189991
rtibia  -0 0 71.84020233
rfoot  -0 -30.28479958 -21.79450035
rtoes  5.373923086 19.29304026 -105.8922705
lfemur  -17.11660004 -10.69489956 10.82279968
ltibia  -0 0 71.36630249
lfoot  -0 14.52770042 -31.50440025
ltoes  -4.250644065 -19.5611806 -102.515957
134
root  1.748446592 33.56688792 1.094904472 151.2700195 -72.33129883 -172.9710083
lowerback  5.296090126 6.000259876 1.115149975
upperback  -0.383453995 7.903719902 -3.330090046
thorax  -2.722850084 3.877830029 -4.618609905
lowerneck  -7.163209915 10.21249962 0.2320419997
upperneck  24.44610023 12.04199982 7.722040176
head  8.264980316 6.258619785 3.564699888
lclavicle  0 -9.442270133e-015 7.951389973e-016
lhumerus  5.500889778 -16.53619957 83.22119904
lradius  2.197598507e-031 -2.76394733e-031 128.4880066
lwrist  -7.062250077e-031 -1.765562519e-031 11.74940014
lhand  -1.496451383e-031 -27.76390076 20.11240005
lfingers  90 7.125020027 -90
lthumb  89.89689403 5.08795885 91.16245106
rclavicle  0 -9.442270133e-015 7.951389973e-016
rhumerus  14.07590008 22.76029968 -80.29879761
rradius  -2.2165045e-031 2.748809167e-031 128.8809967
rwrist  1.412450015e-030 -3.531125038e-031 -6.143430233
rhand  -7.920061211e-032 -33.2840004 9.303460121
rfingers  -90 -7.125020027 -90
rthumb  -92.93752616 -24.25625642 -97.11982154
rfemur  12.06400013 4.2417202 10.34420013
rtibia  -0 0 71.88480377
rfoot  -0 -31.4197998 -22.13150024
rtoes  5.373923086 19.29304026 -105.8922705
lfemur  -18.56340027 -10.02729988 11.1736002
ltibia  -0 0 71.78839874
lfoot  -0 12.93410015 -32.02299881
ltoes  -4.250644065 -19.5611806 -102.515957
135
root  1.888624514 33.4886656 1.192726676 152.0339966 -72.60070038 -172.6550293
lowerback  5.815879822 5.841209888 1.239060044
upperback  -0.1638330072 7.700469971 -3.314340115
thorax  -2.788019896 3.7755301 -4.704249859
lowerneck  -6.714109898 10.42329979 0.06241120026
upperneck  23.75830078 12.46529961 7.392829895
head  7.945750237 6.419149876 3.448580027
lclavicle  0 -9.442270133e-015 7.951389973e-016
lhumerus  5.044620037 -16.23209953 83.57409668
lradius  2.195764439e-031 -2.765404594e-031 128.4499969
lwrist  -7.062250077e-031 -1.765562519e-031 11.6218996
lhand  -1.496451383e-031 -27.76390076 20.11240005
lfingers  90 7.125020027 -90
lthumb  89.89689403 5.08795885 91.16245106
rclavicle  0 -9.442270133e-015 7.951389973e-016
rhumerus  14.18529987 23.35759926 -80.1984024
rradius  -2.223598003e-031 2.74307418e-031 129.029007
rwrist  7.062250077e-031 -1.765562519e-031 -5.85890007
rhand  -7.920061211e-032 -33.2840004 9.303460121
rfingers  -90 -7.125020027 -90
rthumb  -92.93752616 -24.25625642 -97.11982154
rfemur  10.9744997 4.262609959 10.40040016
rtibia  -0 0 71.96219635
rfoot  -0 -32.40890121 -22.40379906
rtoes  5.373923086 19.29304026 -105.8922705
lfemur  -20.00790024 -9.180589676 11.23919964
ltibia  -0 0 72.27179718
lfoot  -0 10.3973999 -32.2098999
ltoes  -4.250644065 -19.5611806 -102.515957
136
root  2.044362158 33.42822218 1.283024427 154.0059814 -72.99900055 -173.6669922
lowerback  6.491980076 5.853199959 0.5532820225
upperback  0.1214710027 7.662260056 -3.182800055
thorax  -2.980050087 3.760879993 -4.254000187
lowerneck  -6.355460167 10.53730011 -0.1723819971
upperneck  23.05690002 12.77560043 6.979909897
head  7.648330212 6.518340111 3.313689947
lclavicle  0 -9.442270133e-015 7.951389973e-016
lhumerus  4.629030228 -16.08469963 84.27590179
lradius  2.188178647e-031 -2.771410877e-031 128.2929993
lwrist  -1.412450015e-030 -0 11.52589989
lhand  -1.496451383e-031 -27.76390076 20.11240005
lfingers  90 7.125020027 -90
lthumb  89.89689403 5.08795885 91.16245106
rclavicle  0 -9.442270133e-015 7.951389973e-016
rhumerus  14.1274004 23.82229996 -79.73079681
rradius  -2.225272681e-031 2.7417158e-031 129.0639954
rwrist  7.062250077e-031 -1.765562519e-031 -5.423940182
rhand  -7.920061211e-032 -33.2840004 9.303460121
rfingers  -90 -7.125020027 -90
rthumb  -92.93752616 -24.25625642 -97.11982154
rfemur  9.899049759 4.285729885 9.905469894
rtibia  -0 0 72.07089996
rfoot  -0 -33.4715004 -22.32959938
rtoes  5.373923086 19.29304026 -105.8922705
lfemur  -21.30130005 -8.33782959 10.71459961
ltibia  -0 0 72.77469635
lfoot  -0 7.887279987 -31.73460007
ltoes  -4.250644065 -19.5611806 -102.515957
